<svg width="24" height="30" viewBox="0 0 24 30" fill="none" xmlns="http://www.w3.org/2000/svg">
<path d="M23.667 6.65941C23.6997 6.65941 23.6344 6.62677 23.6017 6.59412C23.5691 6.56148 23.5691 6.52884 23.5364 6.49619L17.9216 0.195865C17.889 0.163221 17.8237 0.130577 17.7911 0.0979325C17.7584 0.0979325 17.7584 0.0652884 17.7258 0.0652884C17.6605 0.0326442 17.5626 0 17.4646 0H3.68879C1.66485 0 0 1.66485 0 3.68879V26.3112C0 28.3351 1.66485 30 3.68879 30H20.0109C22.0348 30 23.6997 28.3351 23.6997 26.3112V6.88792C23.6997 6.82263 23.667 6.7247 23.667 6.65941ZM18.0849 2.2198L21.7084 6.30033H18.0849V2.2198ZM22.4592 26.2786C22.4592 27.6496 21.3819 28.7595 20.0109 28.7595H3.68879C2.31774 28.7595 1.24048 27.6496 1.24048 26.3112V3.65615C1.24048 2.28509 2.35038 1.20783 3.68879 1.20783H16.8444V6.88792C16.8444 7.21436 17.1055 7.50816 17.4646 7.50816H22.4592V26.2786Z" fill="#1A67D0"/>
<path d="M4.4093 7.50819H9.86088C10.1873 7.50819 10.4811 7.24703 10.4811 6.88794C10.4811 6.52886 10.22 6.2677 9.86088 6.2677H4.4093C4.08286 6.2677 3.78906 6.52886 3.78906 6.88794C3.78906 7.24703 4.08286 7.50819 4.4093 7.50819Z" fill="#1A67D0"/>
<path d="M9.86088 22.4919H4.4093C4.08286 22.4919 3.78906 22.7531 3.78906 23.1122C3.78906 23.4386 4.05022 23.7324 4.4093 23.7324H9.86088C10.1873 23.7324 10.4811 23.4713 10.4811 23.1122C10.4811 22.7857 10.1873 22.4919 9.86088 22.4919Z" fill="#1A67D0"/>
<path d="M3.78906 11.0011C3.78906 11.3275 4.05022 11.6213 4.4093 11.6213H18.9686C19.295 11.6213 19.5888 11.3602 19.5888 11.0011C19.5888 10.6747 19.3277 10.3809 18.9686 10.3809H4.4093C4.08286 10.3809 3.78906 10.642 3.78906 11.0011Z" fill="#1A67D0"/>
<path d="M18.9686 13.4495H4.4093C4.08286 13.4495 3.78906 13.7106 3.78906 14.0697C3.78906 14.3961 4.05022 14.6899 4.4093 14.6899H18.9686C19.295 14.6899 19.5888 14.4288 19.5888 14.0697C19.5888 13.7106 19.3277 13.4495 18.9686 13.4495Z" fill="#1A67D0"/>
<path d="M18.9686 16.4854H4.4093C4.08286 16.4854 3.78906 16.7465 3.78906 17.1056C3.78906 17.432 4.05022 17.7258 4.4093 17.7258H18.9686C19.295 17.7258 19.5888 17.4647 19.5888 17.1056C19.5888 16.7465 19.3277 16.4854 18.9686 16.4854Z" fill="#1A67D0"/>
<path d="M18.9686 19.5212H4.4093C4.08286 19.5212 3.78906 19.7824 3.78906 20.1415C3.78906 20.4679 4.05022 20.7617 4.4093 20.7617H18.9686C19.295 20.7617 19.5888 20.5006 19.5888 20.1415C19.5888 19.815 19.3277 19.5212 18.9686 19.5212Z" fill="#1A67D0"/>
</svg>
